<?xml version="1.0" standalone="no"?>
<!DOCTYPE svg PUBLIC "-//W3C//DTD SVG 20010904//EN"
 "http://www.w3.org/TR/2001/REC-SVG-20010904/DTD/svg10.dtd">
<svg version="1.0" xmlns="http://www.w3.org/2000/svg"
 width="520.000000pt" height="520.000000pt" viewBox="0 0 520.000000 520.000000"
 preserveAspectRatio="xMidYMid meet">
<metadata>
Created by potrace 1.14, written by Peter Selinger 2001-2017
</metadata>
<g transform="translate(0.000000,520.000000) scale(0.100000,-0.100000)"
fill="#000000" stroke="none">
<path d="M4250 4325 c0 -9 6 -12 15 -9 8 4 15 7 15 9 0 2 -7 5 -15 9 -9 3 -15
0 -15 -9z"/>
<path d="M4224 4315 c-8 -20 4 -35 26 -35 20 0 36 -17 25 -28 -3 -3 -10 -1
-14 7 -7 10 -9 10 -14 -2 -8 -21 2 -28 24 -16 29 15 23 39 -12 46 -24 4 -29
10 -26 24 6 22 -1 25 -9 4z"/>
<path d="M4410 4305 c-15 -18 -10 -45 13 -59 15 -9 21 -7 33 8 18 25 18 31 -2
50 -19 20 -28 20 -44 1z m39 -9 c14 -17 4 -46 -15 -46 -18 0 -28 24 -20 45 7
19 20 19 35 1z"/>
<path d="M4507 4309 c7 -7 15 -10 18 -7 3 3 -2 9 -12 12 -14 6 -15 5 -6 -5z"/>
<path d="M4591 4303 c18 -30 -1 -54 -27 -32 -15 12 -17 12 -12 -1 2 -8 13 -15
24 -15 10 0 22 -4 26 -10 4 -5 8 4 8 21 0 17 -7 38 -17 45 -15 13 -15 12 -2
-8z"/>
<path d="M4337 4289 c4 -12 0 -25 -8 -30 -10 -6 -10 -9 -1 -9 6 0 12 -8 13
-17 0 -16 1 -16 8 1 9 22 2 76 -9 76 -5 0 -6 -9 -3 -21z"/>
<path d="M4550 4299 c0 -5 5 -7 10 -4 6 3 10 8 10 11 0 2 -4 4 -10 4 -5 0 -10
-5 -10 -11z"/>
<path d="M4310 4275 c-6 -8 -10 -19 -8 -24 1 -6 8 1 15 14 13 28 11 31 -7 10z"/>
<path d="M4514 4279 c-3 -6 -1 -15 6 -19 19 -12 1 -33 -23 -26 -15 4 -17 2 -8
-7 17 -17 46 5 46 37 1 27 -9 34 -21 15z"/>
<path d="M4558 4228 c6 -6 18 -8 28 -6 14 3 12 5 -9 10 -19 3 -25 2 -19 -4z"/>
<path d="M4030 3125 l0 -1055 -200 0 -200 0 0 305 0 305 -390 0 -390 0 0 -305
0 -305 -1375 0 c-910 0 -1375 -3 -1375 -10 0 -7 465 -10 1375 -10 l1375 0 0
-435 0 -435 390 0 390 0 0 435 0 435 200 0 200 0 0 -435 0 -435 390 0 390 0 0
435 0 435 195 0 c123 0 195 4 195 10 0 6 -72 10 -195 10 l-195 0 0 1055 0
1055 -390 0 -390 0 0 -1055z"/>
<path d="M345 2879 c-93 -17 -150 -61 -185 -141 -19 -43 -24 -71 -24 -144 0
-81 3 -96 27 -137 73 -123 265 -105 305 30 20 69 0 154 -45 195 -39 36 -129
39 -170 5 -18 -13 -17 7 2 43 18 34 81 70 122 70 27 0 28 2 25 40 -2 22 -7 42
-11 43 -3 2 -24 0 -46 -4z m7 -267 c58 -50 8 -179 -61 -157 -45 14 -75 109
-46 148 26 35 72 40 107 9z"/>
<path d="M646 2875 c-80 -28 -106 -79 -111 -216 -4 -152 17 -222 80 -263 33
-22 102 -27 149 -11 82 28 111 105 104 276 -3 87 -8 111 -27 146 -37 64 -120
93 -195 68z m109 -106 c17 -33 21 -232 5 -273 -23 -62 -102 -54 -119 13 -14
55 -7 246 9 266 34 41 83 38 105 -6z"/>
<path d="M1013 2882 c-28 -4 -73 -49 -75 -76 -6 -83 7 -117 57 -140 41 -20 93
-14 126 15 53 46 34 178 -27 194 -42 10 -56 12 -81 7z m65 -76 c13 -28 6 -77
-11 -88 -38 -24 -69 10 -63 67 6 48 55 62 74 21z"/>
<path d="M1227 2782 c-15 -26 -68 -112 -118 -191 -85 -135 -90 -145 -73 -158
10 -7 21 -13 24 -13 7 0 175 264 220 345 26 47 26 49 -5 59 -16 5 -26 -4 -48
-42z"/>
<path d="M3057 2823 c-10 -10 -8 -33 3 -33 5 0 6 8 3 17 -5 12 -2 15 9 11 8
-4 21 -2 29 3 10 6 7 9 -12 9 -14 0 -29 -3 -32 -7z"/>
<path d="M3220 2804 c-13 -34 4 -66 33 -62 16 2 22 10 22 27 0 13 -6 25 -13
27 -7 1 -8 0 -2 -3 18 -9 11 -43 -9 -43 -20 0 -36 26 -21 35 5 3 6 13 3 22 -5
13 -2 15 15 11 12 -4 22 -2 22 3 0 21 -41 8 -50 -17z"/>
<path d="M3130 2799 c0 -5 5 -7 11 -3 8 5 10 -3 7 -25 -3 -19 0 -31 7 -31 7 0
9 13 7 35 -3 21 -10 35 -18 35 -8 0 -14 -5 -14 -11z"/>
<path d="M3311 2782 c-21 -30 -18 -38 12 -33 4 0 7 -4 7 -11 0 -8 3 -8 9 -2 5
5 6 25 3 44 l-8 34 -23 -32z m15 -18 c-4 -9 -9 -15 -11 -12 -3 3 -3 13 1 22 4
9 9 15 11 12 3 -3 3 -13 -1 -22z"/>
<path d="M3385 2789 c-13 -16 -14 -19 -3 -11 15 12 17 10 16 -17 -1 -17 1 -34
4 -37 9 -8 14 29 8 60 l-5 28 -20 -23z"/>
<path d="M3080 2780 c0 -5 5 -9 11 -7 6 1 14 -4 17 -12 3 -10 -3 -13 -27 -9
-34 5 -43 -7 -11 -15 26 -7 53 14 44 36 -7 18 -34 24 -34 7z"/>
<path d="M3365 2750 c3 -5 8 -10 11 -10 2 0 4 5 4 10 0 6 -5 10 -11 10 -5 0
-7 -4 -4 -10z"/>
<path d="M1241 2598 c-47 -17 -72 -64 -67 -121 7 -69 50 -108 115 -102 71 6
101 41 101 121 0 37 -6 51 -29 75 -16 16 -35 29 -43 30 -7 0 -23 2 -34 3 -12
1 -31 -1 -43 -6z m75 -72 c15 -21 10 -76 -8 -88 -22 -14 -47 -9 -58 11 -34 64
25 132 66 77z"/>
<path d="M191 1787 c-9 -24 -2 -77 10 -77 8 0 13 30 12 68 -1 6 3 12 8 12 5 0
9 4 9 8 0 17 -32 8 -39 -11z"/>
<path d="M595 1800 c-3 -5 -1 -10 4 -10 6 0 11 5 11 10 0 6 -2 10 -4 10 -3 0
-8 -4 -11 -10z"/>
<path d="M1259 1805 c-4 -5 -6 -28 -5 -50 1 -31 6 -41 21 -44 15 -3 17 -1 8
10 -6 8 -13 32 -15 54 -2 22 -6 36 -9 30z"/>
<path d="M1349 1807 c-1 -4 -2 -13 -3 -19 0 -7 -9 -13 -20 -13 -27 0 -43 -29
-27 -49 8 -9 21 -16 30 -16 14 1 13 3 -3 15 -12 9 -16 20 -12 31 5 14 9 15 19
5 6 -6 12 -19 12 -28 0 -9 5 -18 11 -20 11 -4 11 83 0 94 -3 4 -7 3 -7 0z"/>
<path d="M1417 1804 c-11 -11 -9 -94 3 -94 6 0 10 11 10 25 0 16 6 25 16 25
12 0 15 -7 12 -25 -5 -26 6 -35 15 -12 4 9 8 9 14 1 4 -7 21 -12 36 -12 25 0
28 3 25 32 -3 32 -31 47 -51 27 -7 -7 -3 -8 12 -4 12 3 21 1 21 -6 0 -6 -6
-11 -14 -11 -8 0 -22 -3 -30 -6 -12 -5 -15 -2 -10 10 6 15 2 18 -28 20 -7 1
-15 9 -18 19 -3 10 -8 15 -13 11z m113 -68 c0 -11 -19 -15 -25 -6 -3 5 1 10 9
10 9 0 16 -2 16 -4z"/>
<path d="M1900 1760 l0 -51 33 3 c25 2 33 8 35 27 4 25 -15 44 -35 36 -7 -2
-13 2 -13 10 0 7 -4 17 -10 20 -6 4 -10 -13 -10 -45z m48 -17 c-4 -22 -22 -20
-26 1 -2 10 3 16 13 16 10 0 15 -7 13 -17z"/>
<path d="M268 1755 c-10 -25 -13 -45 -8 -45 6 0 10 5 10 10 0 13 37 13 45 0 3
-5 16 -8 28 -6 15 2 22 10 21 25 -1 12 5 21 12 21 8 0 14 -11 14 -25 0 -14 5
-25 10 -25 6 0 10 12 10 26 0 16 5 24 13 21 6 -2 11 -14 11 -25 -1 -12 3 -22
7 -22 5 0 9 15 9 34 l0 34 -50 -1 c-27 -1 -51 -6 -51 -12 -1 -5 -2 -14 -4 -20
-1 -5 -3 -14 -4 -20 -1 -5 -10 9 -21 33 -10 23 -23 42 -27 42 -5 0 -16 -20
-25 -45z m32 4 c0 -11 -4 -18 -10 -14 -5 3 -7 12 -3 20 7 21 13 19 13 -6z"/>
<path d="M1745 1763 c3 -52 3 -53 20 -53 18 0 20 17 3 23 -10 3 -10 9 -2 23 9
15 8 22 -2 32 -19 18 -21 16 -19 -25z"/>
<path d="M111 1762 c-12 -23 4 -52 29 -52 29 0 44 35 24 54 -20 21 -41 20 -53
-2z m39 -32 c-19 -12 -33 2 -24 24 6 16 8 16 23 1 14 -14 14 -17 1 -25z"/>
<path d="M470 1759 c-9 -15 -8 -24 1 -35 14 -17 45 -18 55 -2 5 7 2 9 -8 6 -8
-4 -21 -2 -29 3 -10 6 -4 9 19 9 30 0 32 2 22 20 -14 26 -46 26 -60 -1z m40 1
c0 -5 -7 -10 -16 -10 -8 0 -12 5 -9 10 3 6 10 10 16 10 5 0 9 -4 9 -10z"/>
<path d="M549 1777 c-6 -10 -4 -67 2 -67 9 0 13 15 10 38 -2 8 5 12 16 10 11
-2 18 -12 17 -26 -1 -12 2 -22 6 -22 11 0 18 60 8 66 -4 3 -8 0 -8 -6 0 -6 -5
-8 -12 -3 -12 7 -37 13 -39 10z"/>
<path d="M640 1770 c-17 -11 -20 -30 -7 -47 12 -16 43 -17 52 -2 4 6 1 10 -6
8 -33 -4 -40 1 -29 21 7 12 16 17 27 13 11 -4 14 -3 9 5 -9 14 -26 15 -46 2z"/>
<path d="M710 1769 c0 -5 4 -8 9 -4 5 3 12 1 15 -4 3 -5 -3 -11 -14 -14 -11
-3 -20 -12 -20 -21 0 -11 9 -15 33 -14 31 1 33 4 29 27 -3 14 -10 29 -16 33
-16 11 -36 10 -36 -3z m30 -39 c0 -5 -4 -10 -10 -10 -5 0 -10 5 -10 10 0 6 5
10 10 10 6 0 10 -4 10 -10z"/>
<path d="M777 1754 c-2 -13 0 -29 4 -36 8 -13 11 -8 13 21 2 22 26 25 27 4 1
-10 1 -21 0 -25 0 -5 4 -8 10 -8 6 0 9 14 7 33 -3 27 -7 32 -30 32 -20 1 -28
-5 -31 -21z"/>
<path d="M860 1764 c-11 -13 -10 -16 8 -21 12 -3 22 -10 22 -15 0 -6 -7 -8
-15 -5 -8 4 -17 1 -21 -4 -4 -7 4 -9 22 -7 34 4 44 27 15 35 -11 3 -18 9 -15
14 3 5 10 7 15 4 5 -4 9 -1 9 4 0 16 -26 13 -40 -5z"/>
<path d="M991 1754 c15 -42 20 -46 35 -33 11 9 14 9 14 -1 0 -6 5 -10 11 -8
14 5 41 68 29 68 -5 0 -12 -11 -16 -25 -8 -31 -24 -24 -17 8 4 18 3 19 -6 7
-7 -10 -11 -11 -11 -2 0 6 -5 12 -10 12 -7 0 -7 -6 0 -19 6 -12 6 -22 1 -25
-5 -3 -12 5 -15 19 -4 14 -11 25 -16 25 -6 0 -6 -10 1 -26z"/>
<path d="M1099 1764 c-16 -20 -1 -48 29 -52 16 -3 23 3 28 23 10 41 -30 61
-57 29z m37 -30 c-5 -13 -10 -14 -18 -6 -6 6 -8 18 -4 28 5 13 10 14 18 6 6
-6 8 -18 4 -28z"/>
<path d="M1176 1772 c-4 -7 -5 -24 -2 -38 5 -19 13 -24 36 -24 26 0 30 3 28
28 -2 41 -12 51 -18 17 -3 -16 -10 -30 -15 -30 -5 0 -12 14 -15 30 -4 21 -8
26 -14 17z"/>
<path d="M1566 1753 c13 -56 35 -55 48 0 4 19 3 26 -4 22 -5 -3 -10 -16 -10
-28 -1 -20 -2 -20 -16 6 -8 15 -17 27 -20 27 -2 0 -1 -12 2 -27z"/>
<path d="M1642 1771 c-19 -12 -11 -55 12 -59 10 -2 23 2 30 8 8 9 6 11 -11 5
-14 -4 -23 -2 -23 4 0 6 11 11 25 11 27 0 32 9 13 28 -14 14 -28 15 -46 3z
m33 -11 c3 -5 -1 -10 -10 -10 -9 0 -13 5 -10 10 3 6 8 10 10 10 2 0 7 -4 10
-10z"/>
<path d="M1791 1762 c-12 -23 4 -52 29 -52 25 0 46 38 31 53 -18 18 -50 18
-60 -1z m45 -13 c3 -6 1 -16 -5 -22 -9 -9 -14 -8 -21 3 -9 15 -4 30 10 30 5 0
12 -5 16 -11z"/>
<path d="M1984 1754 c-7 -28 7 -44 38 -44 23 0 36 49 17 61 -26 16 -48 10 -55
-17z m42 -19 c-5 -14 -9 -15 -21 -5 -12 10 -13 16 -4 27 15 18 34 1 25 -22z"/>
<path d="M2062 1743 c0 -18 4 -33 9 -33 5 0 9 11 9 25 0 14 5 25 10 25 6 0 10
4 10 8 0 4 -9 8 -19 8 -15 0 -19 -8 -19 -33z"/>
<path d="M2110 1744 c0 -19 5 -34 10 -34 6 0 10 11 10 25 0 14 5 25 10 25 19
0 10 16 -10 17 -16 1 -20 -4 -20 -33z"/>
<path d="M2161 1762 c-20 -38 31 -71 58 -38 9 11 10 20 1 35 -13 26 -46 27
-59 3z m49 -16 c0 -18 -10 -25 -25 -20 -7 3 -11 14 -8 24 5 20 33 16 33 -4z"/>
<path d="M2235 1763 c4 -10 10 -26 12 -35 6 -20 19 -23 29 -7 4 8 9 7 15 -2
11 -18 25 -3 35 35 5 21 4 27 -5 22 -6 -4 -11 -16 -11 -27 0 -11 -4 -18 -9
-15 -5 3 -7 16 -4 29 4 18 3 19 -6 7 -7 -10 -11 -11 -11 -2 0 6 -4 12 -9 12
-4 0 -7 -12 -5 -27 l4 -28 -12 28 c-7 15 -16 27 -21 27 -5 0 -6 -8 -2 -17z"/>
<path d="M1317 1693 c189 -2 497 -2 685 0 189 1 35 2 -342 2 -377 0 -531 -1
-343 -2z"/>
<path d="M1544 1549 c-4 -7 -7 -25 -6 -40 0 -16 -4 -31 -9 -34 -15 -10 -22 24
-9 40 14 16 3 20 -18 6 -8 -4 -12 -19 -10 -32 2 -19 10 -25 36 -27 l32 -3 0
50 c0 52 -3 60 -16 40z"/>
<path d="M1621 1543 c-21 -14 -21 -16 -5 -34 9 -10 24 -19 33 -19 13 0 13 -2
2 -9 -7 -5 -22 -6 -32 -4 -27 7 -24 -6 4 -16 15 -6 27 -4 40 7 23 21 22 31 -8
42 -30 11 -34 30 -5 23 11 -3 20 -1 20 5 0 18 -27 21 -49 5z"/>
<path d="M108 1539 c-2 -6 -2 -26 0 -45 3 -25 9 -34 23 -34 10 0 19 5 19 12 0
9 3 9 12 0 19 -19 48 -14 57 10 17 47 -42 65 -65 20 -18 -36 -27 -39 -21 -8 5
32 0 56 -13 56 -5 0 -10 -5 -12 -11z m95 -35 c3 -3 3 -12 0 -19 -6 -17 -33 -8
-33 11 0 14 21 19 33 8z"/>
<path d="M1367 1538 c-2 -7 -2 -28 0 -45 4 -25 10 -33 25 -33 17 0 18 3 8 14
-6 8 -11 23 -10 33 3 29 1 43 -9 43 -5 0 -11 -6 -14 -12z"/>
<path d="M1765 1524 c-19 -20 -16 -43 7 -58 14 -8 22 -7 35 6 14 14 15 22 5
43 -13 29 -24 31 -47 9z m35 -24 c0 -11 -7 -20 -15 -20 -15 0 -21 21 -8 33 12
13 23 7 23 -13z"/>
<path d="M1838 1515 c-10 -21 -9 -29 5 -43 31 -31 75 19 47 53 -19 22 -39 18
-52 -10z m42 -15 c0 -11 -7 -20 -15 -20 -15 0 -21 21 -8 33 12 13 23 7 23 -13z"/>
<path d="M1926 1524 c-19 -18 -19 -20 -6 -45 15 -28 48 -24 56 6 6 24 -9 55
-27 55 -4 0 -15 -7 -23 -16z m34 -24 c0 -11 -7 -20 -15 -20 -15 0 -21 21 -8
33 12 13 23 7 23 -13z"/>
<path d="M271 1516 c-9 -11 -10 -20 -1 -35 11 -22 44 -28 56 -10 4 8 9 8 17 0
29 -29 77 2 57 38 -15 28 -48 27 -59 -3 -11 -27 -32 -38 -51 -26 -19 12 6 41
27 33 11 -4 14 -2 9 5 -10 16 -41 15 -55 -2z m119 -19 c0 -8 -3 -17 -7 -20 -9
-9 -34 13 -27 24 8 14 34 11 34 -4z"/>
<path d="M415 1513 c4 -10 10 -26 12 -35 9 -29 29 -20 40 17 6 19 7 35 2 35
-5 0 -12 -12 -16 -27 l-6 -28 -10 28 c-5 15 -13 27 -19 27 -6 0 -7 -8 -3 -17z"/>
<path d="M489 1514 c-25 -30 27 -72 55 -44 8 9 6 11 -11 6 -12 -4 -24 -2 -28
4 -4 6 5 10 20 10 21 0 26 4 21 16 -3 9 -6 18 -6 20 0 11 -39 2 -51 -12z m36
-4 c3 -5 -1 -10 -10 -10 -9 0 -13 5 -10 10 3 6 8 10 10 10 2 0 7 -4 10 -10z"/>
<path d="M562 1494 c0 -19 4 -34 9 -34 5 0 9 11 9 25 0 14 5 25 10 25 18 0 10
16 -9 17 -15 1 -19 -5 -19 -33z"/>
<path d="M650 1519 c0 -5 4 -8 9 -4 5 3 12 1 16 -5 3 -5 -3 -10 -14 -10 -15 0
-21 -6 -21 -21 0 -17 5 -19 33 -16 32 4 36 13 22 55 -5 15 -45 16 -45 1z m32
-41 c-9 -9 -15 -9 -24 0 -9 9 -7 12 12 12 19 0 21 -3 12 -12z"/>
<path d="M717 1511 c-6 -23 8 -58 17 -43 4 7 5 16 2 21 -3 5 1 14 9 21 13 10
15 8 15 -13 0 -14 5 -29 11 -32 7 -5 9 5 7 26 -3 29 -7 34 -30 35 -17 1 -28
-5 -31 -15z"/>
<path d="M828 1519 c-3 -8 -2 -23 0 -36 3 -18 10 -22 36 -21 30 1 31 3 28 35
-5 38 -22 45 -22 9 0 -22 -19 -49 -21 -29 -4 41 -14 62 -21 42z"/>
<path d="M910 1494 c0 -19 4 -34 9 -34 6 0 8 9 6 19 -2 11 3 25 11 32 11 9 14
7 15 -12 1 -13 1 -27 0 -31 0 -5 4 -8 10 -8 6 0 9 14 7 33 -3 27 -7 32 -30 33
-25 1 -28 -2 -28 -32z"/>
<path d="M993 1518 c-6 -7 -10 -21 -10 -31 0 -22 44 -34 60 -17 9 10 7 11 -10
6 -12 -4 -24 -2 -28 4 -4 6 4 10 20 10 20 0 26 4 23 18 -4 21 -41 28 -55 10z
m32 -8 c3 -5 -1 -10 -10 -10 -9 0 -13 5 -10 10 3 6 8 10 10 10 2 0 7 -4 10
-10z"/>
<path d="M1060 1521 c0 -6 5 -13 10 -16 7 -4 7 -13 0 -26 -7 -13 -7 -19 0 -19
5 0 10 5 10 12 0 9 3 9 12 0 17 -17 33 -15 19 2 -9 11 -10 20 -1 35 12 23 1
28 -18 9 -9 -9 -12 -9 -12 0 0 7 -4 12 -10 12 -5 0 -10 -4 -10 -9z"/>
<path d="M1130 1476 c0 -38 3 -47 12 -38 6 6 11 25 10 41 0 17 4 33 9 36 15
10 22 -24 9 -40 -10 -12 -10 -15 3 -15 22 0 30 17 23 45 -5 19 -12 23 -36 23
-29 -1 -30 -2 -30 -52z"/>
<path d="M1220 1515 c-19 -23 -8 -50 23 -53 15 -2 27 2 27 8 0 7 -8 9 -20 5
-11 -4 -20 -2 -20 4 0 6 12 11 26 11 20 0 25 4 20 16 -3 9 -6 18 -6 20 0 10
-39 2 -50 -11z m35 -5 c3 -5 -1 -10 -10 -10 -9 0 -13 5 -10 10 3 6 8 10 10 10
2 0 7 -4 10 -10z"/>
<path d="M1302 1521 c-19 -12 -11 -55 12 -59 10 -2 23 2 30 9 8 9 7 11 -6 6
-17 -6 -43 15 -31 26 3 4 15 7 25 7 11 0 16 5 13 10 -8 12 -25 13 -43 1z"/>
<path d="M1419 1514 c-9 -11 -10 -20 -2 -32 12 -20 53 -29 53 -12 0 7 -7 10
-15 7 -8 -4 -17 -2 -20 3 -4 6 6 10 20 10 21 0 26 4 21 16 -3 9 -6 18 -6 20 0
11 -39 2 -51 -12z m36 -4 c3 -5 -1 -10 -10 -10 -9 0 -13 5 -10 10 3 6 8 10 10
10 2 0 7 -4 10 -10z"/>
<path d="M1690 1520 c0 -5 5 -10 10 -10 6 0 10 -7 10 -15 0 -8 -4 -15 -10 -15
-5 0 -10 -4 -10 -10 0 -5 12 -10 26 -10 21 0 25 3 19 18 -4 9 -7 25 -7 35 0
10 -7 17 -19 17 -10 0 -19 -4 -19 -10z"/>
<path d="M111 1292 c-19 -35 34 -74 55 -41 4 8 0 9 -15 4 -12 -4 -21 -2 -21 4
0 6 11 11 25 11 23 0 24 2 15 20 -13 25 -46 26 -59 2z m49 -8 c0 -2 -9 -4 -21
-4 -11 0 -18 4 -14 10 5 8 35 3 35 -6z"/>
<path d="M180 1302 c0 -6 5 -14 10 -17 7 -4 7 -13 0 -26 -7 -13 -7 -19 0 -19
5 0 10 5 10 12 0 9 3 9 12 0 19 -19 30 -14 18 7 -7 13 -7 22 0 26 5 3 10 11
10 17 0 7 -6 6 -15 -2 -12 -10 -18 -10 -30 0 -9 8 -15 9 -15 2z"/>
<path d="M250 1259 c0 -27 5 -49 10 -49 10 0 14 27 11 63 -2 11 5 17 18 17 23
0 24 -18 1 -38 -13 -11 -12 -12 5 -10 15 2 20 11 20 33 0 27 -3 30 -32 32 -33
1 -33 1 -33 -48z"/>
<path d="M342 1298 c-7 -7 -12 -20 -12 -30 0 -22 47 -36 63 -18 9 10 7 11 -10
6 -12 -4 -24 -2 -28 4 -4 6 5 10 20 10 21 0 26 4 21 16 -3 9 -6 18 -6 20 0 9
-37 3 -48 -8z m33 -8 c3 -5 -1 -10 -10 -10 -9 0 -13 5 -10 10 3 6 8 10 10 10
2 0 7 -4 10 -10z"/>
<path d="M412 1279 c-1 -15 2 -30 8 -34 6 -4 10 5 10 19 0 16 6 26 15 26 9 0
15 -9 15 -25 0 -14 4 -25 9 -25 7 0 8 36 3 62 -1 4 -15 6 -30 6 -23 -1 -28 -6
-30 -29z"/>
<path d="M497 1303 c-12 -12 -7 -33 7 -33 8 0 18 -5 22 -12 5 -8 0 -9 -14 -6
-12 4 -22 2 -22 -4 0 -13 53 -6 57 9 2 6 -5 14 -16 18 -12 3 -21 11 -21 17 0
5 7 7 16 4 8 -3 12 -2 9 4 -7 11 -28 13 -38 3z"/>
<path d="M561 1296 c-9 -11 -10 -20 -1 -35 12 -23 44 -28 56 -9 5 8 0 9 -14 6
-12 -4 -25 -2 -28 3 -3 5 7 9 21 9 20 0 26 4 23 18 -4 22 -41 27 -57 8z m49
-12 c0 -2 -9 -4 -21 -4 -11 0 -18 4 -14 10 5 8 35 3 35 -6z"/>
<path d="M3150 907 c0 -10 -8 -17 -19 -17 -10 0 -24 -7 -32 -16 -11 -14 -13
-14 -21 0 -21 38 -77 2 -57 -36 11 -20 44 -24 55 -7 4 7 0 9 -14 5 -11 -4 -23
-2 -27 4 -4 6 7 10 29 10 25 0 36 -5 36 -15 0 -10 10 -14 34 -13 33 1 33 2 31
45 -3 42 -15 75 -15 40z m-80 -43 c0 -2 -9 -4 -21 -4 -11 0 -18 4 -14 10 5 8
35 3 35 -6z m74 -19 c-3 -8 -12 -11 -20 -8 -15 5 -19 25 -7 36 10 11 32 -13
27 -28z"/>
<path d="M3385 910 c-3 -5 1 -10 10 -10 9 0 13 5 10 10 -3 6 -8 10 -10 10 -2
0 -7 -4 -10 -10z"/>
<path d="M3419 872 c-4 -50 -4 -50 25 -49 37 2 55 29 36 52 -7 9 -22 14 -32
12 -10 -3 -16 -2 -14 2 3 4 1 13 -4 20 -5 9 -9 -5 -11 -37z m47 -27 c-5 -14
-9 -15 -21 -5 -12 10 -13 16 -4 27 15 18 34 1 25 -22z"/>
<path d="M3500 871 l0 -49 45 0 c25 0 48 4 51 10 4 6 -1 8 -15 3 -12 -4 -21
-2 -21 4 0 6 11 11 25 11 28 0 32 12 10 30 -22 18 -55 3 -55 -27 0 -15 -5 -23
-12 -21 -8 3 -12 20 -11 41 1 20 -3 39 -8 42 -5 4 -9 -16 -9 -44z m85 -1 c3
-5 -1 -10 -9 -10 -9 0 -16 5 -16 10 0 6 4 10 9 10 6 0 13 -4 16 -10z"/>
<path d="M4130 888 c-6 -18 -16 -41 -21 -50 -10 -19 5 -26 16 -8 9 14 42 12
48 -2 2 -7 7 -10 11 -7 6 6 -29 99 -37 99 -3 0 -10 -15 -17 -32z m30 -30 c0
-5 -4 -8 -10 -8 -5 0 -10 10 -10 23 0 18 2 19 10 7 5 -8 10 -18 10 -22z"/>
<path d="M2930 865 c0 -42 2 -45 26 -45 42 0 63 34 44 70 -7 13 -21 20 -40 20
-29 0 -30 -2 -30 -45z m50 20 c15 -18 6 -45 -14 -45 -15 0 -25 27 -19 48 6 16
18 15 33 -3z"/>
<path d="M3338 898 c-9 -23 4 -78 18 -78 16 0 19 16 4 25 -8 5 -7 11 1 21 10
12 9 18 -3 30 -12 13 -16 13 -20 2z"/>
<path d="M4510 865 c0 -29 4 -45 13 -45 8 0 11 14 9 45 -2 25 -8 45 -13 45 -5
0 -9 -20 -9 -45z"/>
<path d="M4580 866 c0 -27 5 -46 11 -46 7 0 9 12 7 31 l-5 31 19 -23 c18 -24
18 -24 34 -4 16 20 16 20 11 -2 -3 -13 -1 -26 4 -29 10 -6 10 -5 13 49 2 43
-14 49 -34 12 l-13 -25 -11 22 c-20 40 -36 33 -36 -16z"/>
<path d="M3182 858 c3 -29 7 -33 35 -35 31 -1 32 0 28 30 -2 18 -4 34 -5 37 0
3 -5 -3 -11 -13 -5 -9 -8 -21 -4 -26 3 -5 1 -12 -5 -16 -11 -7 -31 35 -23 48
2 4 -1 7 -7 7 -7 0 -10 -13 -8 -32z"/>
<path d="M3264 866 c-3 -14 -3 -30 1 -35 8 -15 42 -14 51 1 5 7 2 9 -9 5 -16
-6 -41 15 -30 26 3 4 15 7 25 7 11 0 16 5 13 10 -12 20 -44 10 -51 -14z"/>
<path d="M3389 883 c-5 -44 -5 -63 3 -63 4 0 8 6 9 13 0 6 2 20 4 29 2 10 -1
20 -6 24 -5 3 -9 2 -10 -3z"/>
<path d="M4200 853 c0 -18 4 -33 9 -33 4 0 8 10 7 23 -1 13 5 22 14 22 9 0 15
-9 14 -22 -2 -27 13 -31 18 -5 8 34 -3 51 -33 50 -26 -1 -29 -4 -29 -35z"/>
<path d="M4278 853 c-3 -22 0 -33 9 -33 7 0 10 6 8 13 -6 17 10 41 23 33 6 -3
8 -15 5 -26 -3 -11 0 -20 6 -20 6 0 11 16 11 35 0 33 -2 35 -29 33 -25 -2 -30
-7 -33 -35z"/>
<path d="M4359 885 c-3 -6 -5 -21 -5 -35 1 -21 7 -26 34 -28 31 -3 32 -2 32
32 0 20 -4 36 -10 36 -5 0 -10 -11 -10 -24 0 -38 -18 -41 -28 -4 -4 18 -10 28
-13 23z"/>
<path d="M4445 880 c-3 -5 0 -7 8 -4 8 3 18 0 23 -7 4 -7 3 -10 -3 -6 -14 9
-48 -18 -39 -31 3 -6 20 -10 36 -10 24 1 29 5 25 22 -2 12 -4 27 -4 34 -1 14
-37 16 -46 2z m30 -40 c-3 -5 -10 -10 -16 -10 -5 0 -9 5 -9 10 0 6 7 10 16 10
8 0 12 -4 9 -10z"/>
<path d="M4694 878 c-5 -8 -2 -9 9 -5 9 3 19 2 22 -3 4 -6 -3 -10 -14 -10 -14
0 -21 -6 -21 -20 0 -16 7 -20 30 -20 31 0 38 17 24 54 -7 19 -40 21 -50 4z
m36 -38 c0 -5 -4 -10 -9 -10 -6 0 -13 5 -16 10 -3 6 1 10 9 10 9 0 16 -4 16
-10z"/>
<path d="M4770 869 c9 -15 8 -24 -1 -35 -7 -9 -8 -14 -1 -14 6 0 14 5 17 10 5
8 11 7 21 -1 9 -7 14 -8 14 -1 0 6 -5 14 -11 18 -8 4 -8 9 0 17 16 16 13 31
-3 18 -10 -8 -16 -9 -21 -1 -12 20 -26 10 -15 -11z"/>
<path d="M4836 587 c3 -10 9 -15 12 -12 3 3 0 11 -7 18 -10 9 -11 8 -5 -6z"/>
<path d="M3060 576 c0 -9 -7 -12 -18 -9 -24 6 -45 -21 -37 -47 5 -15 14 -20
36 -18 27 2 29 5 29 45 0 24 -2 43 -5 43 -3 0 -5 -6 -5 -14z m-2 -39 c4 -20
-25 -34 -40 -19 -15 15 -1 44 19 40 10 -2 19 -11 21 -21z"/>
<path d="M3262 580 c2 -8 -5 -14 -16 -15 -23 0 -41 -27 -33 -49 4 -11 16 -16
34 -14 26 2 28 5 27 40 0 21 -4 41 -8 45 -4 5 -6 1 -4 -7z m-5 -31 c16 -16 5
-39 -18 -39 -12 0 -19 7 -19 18 0 31 17 41 37 21z"/>
<path d="M3444 551 c1 -30 6 -46 16 -48 10 -3 11 -2 3 4 -6 4 -13 26 -16 48
-4 40 -4 40 -3 -4z"/>
<path d="M4090 571 c-13 -26 -13 -34 5 -57 14 -18 15 -17 4 7 -8 20 -8 32 0
48 7 11 9 21 7 21 -3 0 -10 -9 -16 -19z"/>
<path d="M4127 583 c-15 -14 -5 -32 24 -42 36 -12 29 -35 -8 -28 -16 3 -21 1
-15 -5 15 -15 56 -5 60 13 2 11 -8 20 -27 27 -38 14 -40 29 -3 35 l27 4 -26 2
c-14 0 -29 -2 -32 -6z"/>
<path d="M4604 547 c0 -25 4 -43 9 -40 4 2 5 8 2 13 -13 21 20 21 37 0 10 -12
18 -19 18 -14 0 4 -7 16 -17 26 -15 17 -15 20 3 41 11 12 4 9 -15 -8 -20 -17
-32 -23 -28 -14 3 9 2 21 -3 28 -4 7 -7 -7 -6 -32z"/>
<path d="M4691 543 c1 -27 4 -38 6 -26 2 13 13 24 26 26 l22 4 -22 2 c-33 2
-29 29 5 34 25 4 25 4 -5 6 -33 1 -33 1 -32 -46z"/>
<path d="M4769 578 c-5 -44 -3 -76 4 -71 5 3 6 11 3 18 -3 9 5 15 22 18 l27 4
-28 2 c-34 1 -32 22 4 32 24 7 24 7 -3 8 -16 1 -29 -5 -29 -11z"/>
<path d="M2585 571 c-3 -7 0 -8 9 -5 22 8 20 -15 -1 -33 -16 -13 -16 -13 5 -3
13 6 22 18 20 27 -4 20 -24 28 -33 14z"/>
<path d="M2650 565 c-7 -8 -10 -25 -6 -40 8 -32 41 -33 56 -2 10 21 10 21 -4
3 -18 -22 -46 -15 -46 13 0 25 18 37 33 22 6 -6 16 -11 22 -11 11 1 -24 30
-36 30 -3 0 -12 -7 -19 -15z"/>
<path d="M2744 569 c-4 -8 -3 -9 4 -5 7 4 12 1 12 -6 0 -7 -9 -19 -20 -26 -28
-17 -25 -32 8 -31 l27 1 -25 7 -25 7 23 12 c23 13 29 36 13 47 -5 3 -13 0 -17
-6z"/>
<path d="M2802 571 c-8 -5 -12 -21 -10 -37 2 -23 8 -29 28 -29 18 0 26 6 28
23 3 22 -13 52 -27 52 -3 0 -12 -4 -19 -9z m36 -34 c3 -22 -1 -27 -17 -27 -15
0 -21 6 -21 23 0 46 33 49 38 4z"/>
<path d="M2903 535 c0 -22 2 -30 4 -17 2 12 2 30 0 40 -3 9 -5 -1 -4 -23z"/>
<path d="M2931 531 c1 -36 1 -36 8 -6 8 40 38 46 44 8 4 -28 4 -28 3 2 -1 26
-5 30 -28 31 -26 1 -28 -2 -27 -35z"/>
<path d="M3093 535 c0 -22 2 -30 4 -17 2 12 2 30 0 40 -3 9 -5 -1 -4 -23z"/>
<path d="M3110 565 c0 -5 5 -17 10 -25 5 -8 10 -10 10 -5 0 6 -5 17 -10 25 -5
8 -10 11 -10 5z"/>
<path d="M3183 533 c-1 -19 0 -34 2 -31 8 7 13 58 7 62 -4 2 -8 -12 -9 -31z"/>
<path d="M3291 554 c0 -11 3 -14 6 -6 3 7 2 16 -1 19 -3 4 -6 -2 -5 -13z"/>
<path d="M3340 540 c0 -20 -5 -30 -15 -30 -8 0 -15 5 -15 10 0 6 -4 10 -10 10
-5 0 -7 -7 -4 -15 4 -8 17 -15 30 -15 21 0 24 5 24 35 0 19 -2 35 -5 35 -3 0
-5 -13 -5 -30z"/>
<path d="M3376 561 c-4 -5 4 -7 16 -3 17 4 20 2 15 -11 -4 -11 -1 -17 9 -17
12 0 12 4 4 20 -11 21 -35 27 -44 11z"/>
<path d="M3549 532 c5 -34 6 -35 9 -8 2 16 0 32 -5 37 -5 5 -7 -7 -4 -29z"/>
<path d="M3571 569 c-2 -13 21 -69 29 -69 10 0 22 31 15 38 -3 3 -5 0 -5 -6 0
-22 -16 -12 -27 16 -6 15 -11 24 -12 21z"/>
<path d="M3652 561 c-18 -11 -12 -41 10 -55 13 -8 21 -7 29 1 9 9 7 11 -9 6
-15 -3 -24 0 -28 12 -9 22 10 40 33 30 16 -7 15 -9 -7 -15 -22 -7 -22 -8 -4
-9 27 -1 36 9 23 26 -13 15 -28 16 -47 4z"/>
<path d="M3721 531 c1 -28 3 -30 6 -11 3 14 9 30 14 36 5 7 3 11 -6 11 -11 0
-15 -11 -14 -36z"/>
<path d="M3796 555 c14 -11 15 -14 4 -15 -10 0 -11 -3 -4 -8 6 -4 14 -14 17
-22 4 -10 6 -8 6 7 1 32 -9 53 -27 53 -13 0 -12 -3 4 -15z"/>
<path d="M3839 554 c-17 -21 1 -49 30 -48 12 0 20 -4 18 -10 -2 -6 -17 -10
-33 -9 -27 1 -28 1 -7 -9 32 -15 51 4 50 50 -1 32 -4 38 -23 40 -12 1 -28 -5
-35 -14z m49 -17 c4 -20 -25 -34 -40 -19 -15 15 -1 44 19 40 10 -2 19 -11 21
-21z"/>
<path d="M3922 558 c-18 -18 -15 -39 4 -31 12 4 13 7 3 14 -11 6 -10 9 3 14
23 9 45 -4 27 -16 -11 -7 -10 -9 4 -9 9 0 17 4 17 8 0 12 -22 32 -35 32 -6 0
-16 -5 -23 -12z"/>
<path d="M3995 560 c-8 -14 3 -30 21 -30 20 0 18 -18 -3 -23 -15 -3 -14 -4 1
-3 27 1 32 26 7 33 -26 7 -27 20 -3 26 15 4 15 5 0 6 -9 0 -20 -3 -23 -9z"/>
<path d="M4210 555 c-16 -20 -9 -49 14 -53 27 -6 48 25 35 49 -12 23 -32 24
-49 4z m42 -7 c8 -21 -2 -38 -23 -38 -19 0 -27 29 -12 43 11 11 31 8 35 -5z"/>
<path d="M4280 541 c0 -17 4 -32 8 -35 4 -2 6 11 4 30 -5 42 -12 45 -12 5z"/>
<path d="M4330 547 c0 -13 -5 -28 -10 -33 -7 -7 -6 -11 5 -11 10 0 15 10 15
34 0 18 -2 33 -5 33 -3 0 -5 -10 -5 -23z"/>
<path d="M4401 552 c-12 -23 4 -52 29 -52 10 0 21 4 24 9 4 5 -3 7 -15 4 -23
-6 -40 12 -32 34 3 8 14 13 24 10 11 -3 17 -1 13 4 -9 15 -33 10 -43 -9z"/>
<path d="M4472 558 c-9 -13 1 -58 13 -58 4 0 3 5 -1 11 -3 6 0 15 7 20 11 7 9
9 -5 9 -15 0 -17 3 -9 11 14 14 47 4 38 -11 -3 -5 -1 -10 4 -10 14 0 14 13 -1
28 -15 15 -33 15 -46 0z"/>
<path d="M4355 550 c3 -5 8 -10 11 -10 2 0 4 5 4 10 0 6 -5 10 -11 10 -5 0 -7
-4 -4 -10z"/>
<path d="M4851 548 c0 -9 -4 -25 -7 -35 -5 -17 -5 -17 6 0 6 10 9 25 7 35 -4
15 -5 15 -6 0z"/>
<path d="M3373 525 c-3 -9 -3 -18 -1 -21 3 -3 8 4 11 16 6 23 -1 27 -10 5z"/>
<path d="M3505 530 c-9 -15 4 -30 23 -29 15 1 15 2 0 6 -10 2 -18 8 -18 13 0
5 8 11 18 13 15 4 15 5 0 6 -9 0 -20 -3 -23 -9z"/>
<path d="M3767 533 c-13 -13 -7 -33 11 -33 13 0 14 2 3 9 -7 5 -10 14 -7 20 8
12 3 15 -7 4z"/>
<path d="M3135 521 c-3 -5 -1 -12 4 -15 5 -3 11 1 15 9 6 16 -9 21 -19 6z"/>
<path d="M4355 520 c-3 -5 -1 -10 4 -10 6 0 11 5 11 10 0 6 -2 10 -4 10 -3 0
-8 -4 -11 -10z"/>
<path d="M3400 510 c-12 -7 -10 -9 7 -7 12 0 19 5 17 9 -6 10 -6 10 -24 -2z"/>
<path d="M4510 510 c-9 -6 -10 -10 -3 -10 6 0 15 5 18 10 8 12 4 12 -15 0z"/>
<path d="M2583 503 c9 -2 25 -2 35 0 9 3 1 5 -18 5 -19 0 -27 -2 -17 -5z"/>
<path d="M3933 503 c9 -2 23 -2 30 0 6 3 -1 5 -18 5 -16 0 -22 -2 -12 -5z"/>
</g>
</svg>
